<svg width="122" height="21" viewBox="0 0 122 21" fill="none" xmlns="http://www.w3.org/2000/svg">
<path d="M2.35538 3.36364H4.0372L7.99174 13.0227H8.12811L12.0827 3.36364H13.7645V15H12.4463V6.15909H12.3327L8.69629 15H7.42356L3.7872 6.15909H3.67356V15H2.35538V3.36364ZM15.5898 3.36364H17.2034L20.4307 8.79545H20.567L23.7943 3.36364H25.4079L21.2034 10.2045V15H19.7943V10.2045L15.5898 3.36364ZM36.0471 7H34.6381C34.5547 6.5947 34.4089 6.23864 34.2006 5.93182C33.996 5.625 33.746 5.36742 33.4506 5.15909C33.1589 4.94697 32.835 4.78788 32.479 4.68182C32.1229 4.57576 31.7517 4.52273 31.3653 4.52273C30.6608 4.52273 30.0225 4.70076 29.4506 5.05682C28.8824 5.41288 28.4297 5.9375 28.0926 6.63068C27.7593 7.32386 27.5926 8.17424 27.5926 9.18182C27.5926 10.1894 27.7593 11.0398 28.0926 11.733C28.4297 12.4261 28.8824 12.9508 29.4506 13.3068C30.0225 13.6629 30.6608 13.8409 31.3653 13.8409C31.7517 13.8409 32.1229 13.7879 32.479 13.6818C32.835 13.5758 33.1589 13.4186 33.4506 13.2102C33.746 12.9981 33.996 12.7386 34.2006 12.4318C34.4089 12.1212 34.5547 11.7652 34.6381 11.3636H36.0471C35.9411 11.9583 35.7479 12.4905 35.4676 12.9602C35.1873 13.4299 34.8388 13.8295 34.4221 14.1591C34.0055 14.4848 33.5377 14.733 33.0187 14.9034C32.5036 15.0739 31.9524 15.1591 31.3653 15.1591C30.3729 15.1591 29.4903 14.9167 28.7176 14.4318C27.9449 13.947 27.3369 13.2576 26.8937 12.3636C26.4506 11.4697 26.229 10.4091 26.229 9.18182C26.229 7.95455 26.4506 6.89394 26.8937 6C27.3369 5.10606 27.9449 4.41667 28.7176 3.93182C29.4903 3.44697 30.3729 3.20455 31.3653 3.20455C31.9524 3.20455 32.5036 3.28977 33.0187 3.46023C33.5377 3.63068 34.0055 3.88068 34.4221 4.21023C34.8388 4.53598 35.1873 4.93371 35.4676 5.40341C35.7479 5.86932 35.9411 6.40151 36.0471 7ZM38.8014 15H37.3241L41.5969 3.36364H43.0514L47.3241 15H45.8469L42.3696 5.20455H42.2787L38.8014 15ZM39.3469 10.4545H45.3014V11.7045H39.3469V10.4545ZM49.1366 15V3.36364H53.0684C53.9775 3.36364 54.7238 3.51894 55.3071 3.82955C55.8904 4.13636 56.3222 4.55871 56.6025 5.09659C56.8828 5.63447 57.023 6.24621 57.023 6.93182C57.023 7.61742 56.8828 8.22538 56.6025 8.75568C56.3222 9.28598 55.8923 9.70265 55.3128 10.0057C54.7332 10.3049 53.9927 10.4545 53.0912 10.4545H49.9094V9.18182H53.0457C53.6669 9.18182 54.1669 9.09091 54.5457 8.90909C54.9283 8.72727 55.2048 8.4697 55.3753 8.13636C55.5495 7.79924 55.6366 7.39773 55.6366 6.93182C55.6366 6.46591 55.5495 6.05871 55.3753 5.71023C55.201 5.36174 54.9226 5.0928 54.54 4.90341C54.1575 4.71023 53.6518 4.61364 53.023 4.61364H50.5457V15H49.1366ZM54.6139 9.77273L57.4775 15H55.8412L53.023 9.77273H54.6139ZM62.9619 15H59.371V3.36364H63.121C64.2498 3.36364 65.2157 3.59659 66.0187 4.0625C66.8218 4.52462 67.4373 5.18939 67.8653 6.05682C68.2934 6.92045 68.5074 7.95455 68.5074 9.15909C68.5074 10.3712 68.2915 11.4148 67.8596 12.2898C67.4278 13.161 66.799 13.8314 65.9733 14.3011C65.1475 14.767 64.1437 15 62.9619 15ZM60.7801 13.75H62.871C63.8331 13.75 64.6305 13.5644 65.2631 13.1932C65.8956 12.822 66.3672 12.2936 66.6778 11.608C66.9884 10.9223 67.1437 10.1061 67.1437 9.15909C67.1437 8.2197 66.9903 7.41098 66.6835 6.73295C66.3767 6.05114 65.9184 5.52841 65.3085 5.16477C64.6987 4.79735 63.9392 4.61364 63.0301 4.61364H60.7801V13.75Z" fill="#959595"/>
<path d="M70.4733 15V3.36364H75.0642C75.9468 3.36364 76.6987 3.5322 77.3199 3.86932C77.9411 4.20265 78.4146 4.66667 78.7403 5.26136C79.0699 5.85227 79.2346 6.53409 79.2346 7.30682C79.2346 8.07955 79.068 8.76136 78.7346 9.35227C78.4013 9.94318 77.9184 10.4034 77.2858 10.733C76.657 11.0625 75.8956 11.2273 75.0017 11.2273H72.0756V9.25568H74.604C75.0774 9.25568 75.4676 9.17424 75.7744 9.01136C76.085 8.8447 76.3161 8.61553 76.4676 8.32386C76.6229 8.02841 76.7006 7.68939 76.7006 7.30682C76.7006 6.92045 76.6229 6.58333 76.4676 6.29545C76.3161 6.00379 76.085 5.77841 75.7744 5.61932C75.4638 5.45644 75.0699 5.375 74.5926 5.375H72.9335V15H70.4733ZM81.4946 15H78.8582L82.8753 3.36364H86.0457L90.0571 15H87.4207L84.5059 6.02273H84.415L81.4946 15ZM81.3298 10.4261H87.5571V12.3466H81.3298V10.4261ZM89.5883 3.36364H92.344L94.9974 8.375H95.1111L97.7645 3.36364H100.52L96.2758 10.8864V15H93.8327V10.8864L89.5883 3.36364Z" fill="white"/>
<path fill-rule="evenodd" clip-rule="evenodd" d="M106.149 13.8617L106.146 13.8662L106.143 13.8707C105.965 14.1227 105.566 14.1968 105.254 13.9766C105.004 13.8003 104.929 13.4074 105.142 13.097C105.459 12.6927 105.689 12.2201 105.841 11.7581C105.998 11.2771 106.071 10.7305 106.069 10.1945C106.066 9.6584 105.987 9.11265 105.824 8.63336C105.668 8.17297 105.433 7.70283 105.111 7.30197C104.895 6.99379 104.966 6.60019 105.214 6.42125C105.523 6.19771 105.923 6.26752 106.103 6.51763L106.107 6.52212L106.11 6.52653C106.51 7.05407 106.838 7.64021 107.034 8.21526C107.241 8.89173 107.372 9.5461 107.376 10.1875C107.379 10.8625 107.315 11.5013 107.067 12.1302C106.797 12.8151 106.536 13.34 106.149 13.8617ZM109.042 15.1145L109.049 15.1034L109.057 15.0919C109.943 13.6713 110.455 11.957 110.445 10.1711C110.436 8.38572 109.906 6.6774 109.005 5.26648C108.81 4.95672 108.897 4.59047 109.227 4.35263C109.448 4.1929 109.863 4.24946 110.109 4.57955C111.127 6.19418 111.742 8.14602 111.752 10.1642C111.763 12.2513 111.17 14.1397 110.169 15.7662C109.937 16.085 109.582 16.1743 109.277 15.9936C108.945 15.7507 108.885 15.337 109.042 15.1145ZM114.232 2.45726L114.241 2.47451L114.251 2.491C115.63 4.73921 116.396 7.33245 116.411 10.1394C116.426 12.945 115.688 15.5452 114.335 17.8072C114.127 18.1409 113.777 18.235 113.421 18.0697C113.098 17.859 113.011 17.5098 113.18 17.1571C114.332 15.1125 115.047 12.703 115.034 10.1467C115.02 7.60178 114.355 5.1962 113.103 3.15139C112.934 2.80224 113.018 2.45451 113.337 2.24139C113.723 2.05727 114.098 2.19223 114.232 2.45726ZM118.315 0.317685L118.321 0.32947L118.328 0.340905C119.999 3.22943 120.981 6.53187 121 10.1149C121.019 13.6943 120.074 17.0039 118.437 19.9079C118.229 20.2378 117.881 20.3302 117.527 20.1657C117.205 19.9556 117.117 19.608 117.284 19.2564C118.861 16.5648 119.711 13.4464 119.693 10.1219C119.675 6.78889 118.718 3.68253 117.189 1.01743C116.997 0.628378 117.132 0.247344 117.4 0.111854C117.792 -0.0870214 118.179 0.0479786 118.315 0.317685Z" fill="white"/>
</svg>
